<?xml version="1.0" encoding="utf-8"?>
<!-- Generator: Adobe Illustrator 19.2.1, SVG Export Plug-In . SVG Version: 6.00 Build 0)  -->
<svg version="1.1" id="layer" xmlns="http://www.w3.org/2000/svg" xmlns:xlink="http://www.w3.org/1999/xlink" x="0px" y="0px"
	 viewBox="0 0 652 652" style="enable-background:new 0 0 652 652;" xml:space="preserve">
<path d="M431.8,265.3h-34.5L364,314.7v-49.3h-30v111h30v-53.1l35.6,53.1h36.3l-41.7-58.1L431.8,265.3z M290.6,275.8
	c-9.2-8.4-21.2-13.6-34.9-13.6c-31.7,0-55.4,25.1-55.4,58.7s23.7,58.9,55.4,58.9c13.5,0,25.3-4.9,34.3-13.4l2.5,10.1h24.2V265.3
	h-23.2C293.5,265.3,290.6,275.8,290.6,275.8z M258.1,351.4c-16.7,0-28.8-13.2-28.8-30.5c0-17.3,12.1-30.5,28.8-30.5
	c16.7,0,28.8,13,28.8,30.5C286.9,338.4,274.7,351.4,258.1,351.4z M612.2,264.7c-14.4,0-24.2,4.5-32.2,14.4l-5.3-13.8h-19.1v111.2h30
	v-57.6c0-18.1,6.6-25.7,23.4-25.7H622v-28.5H612.2z M148.1,262.9c-13.6,0-26.4,6.6-34.3,17.7c-6.6-11.1-18.1-17.7-32.2-17.7
	c-13.1,0-25.3,6.4-33.1,16.3L43,265.3H22v111.2h30v-60.1c0-17.3,8-27.2,21.5-27.2c10.7,0,16.4,7.8,16.4,22.6v64.6h29.1v-60.1
	c0-17.3,8-27.2,21.4-27.2c10.9,0,16.7,7.8,16.7,22.6v64.6h30v-69.5C187.1,280.7,171.1,262.9,148.1,262.9z"/>
<path d="M485.7,262.2c-32.9,0-57.5,25.3-57.5,58.7s24.8,58.9,57.5,58.9c25.9,0,47-15.4,55-39.7h-31.4c-4.5,8-13.1,13-23.6,13
	c-14.6,0-24.4-8.4-27.1-23.7h84c0.4-2.9,0.6-5.8,0.6-8.7C543.2,288.6,519.8,262.2,485.7,262.2L485.7,262.2z M459.4,309
	c3.5-13.2,12.9-21,26.3-21c13.4,0,23.2,7.4,27.5,21H459.4z"/>
</svg>
