<?xml version="1.0" encoding="utf-8"?>
<!-- Generator: Adobe Illustrator 19.2.1, SVG Export Plug-In . SVG Version: 6.00 Build 0)  -->
<svg version="1.1" id="layer" xmlns="http://www.w3.org/2000/svg" xmlns:xlink="http://www.w3.org/1999/xlink" x="0px" y="0px"
	 viewBox="0 0 652 652" style="enable-background:new 0 0 652 652;" xml:space="preserve">
<style type="text/css">
	.st0{fill-rule:evenodd;clip-rule:evenodd;fill:#3E6FAC;}
</style>
<path class="st0" d="M83.1,309.9c31,8.4,7.9,40.3-13.3,43.7c-17.5,2.8-32.2,3.4-48.8-3.8c3.9-5.4,7.8-12.9,11.7-18.3
	c27.9,14.9,42.7-1.1,23.6-6.9c-56.2-17.1-7-66.6,52.6-41.1c-2.8,4.8-5.3,10.6-8.1,15.4C68.5,284.5,49.3,300.7,83.1,309.9
	 M116.7,288.8c-2.7,12.6-15.5,44.6-9.8,57.1c1.6,3.4,5,6.2,11.2,8.3c11.3,3.9,28.3,3.3,38,0.3c9.6-2.9,19.4-9.6,23-19.1
	c5.6-14.7,10.1-31.3,14.8-46.7l-12.7,0c-3,10.2-5.8,19.9-8.8,30c-3,10.2-5.7,22.2-17,25.1c-6.7,1.7-14.1,2.3-18.5-0.7
	c-6.6-4.5-2.1-11.6,1.6-25c2.7-9.8,5.7-20,7.9-29.4L116.7,288.8z M211.6,288.8l24.8,0l5.9,39.5l29.5-39.5l24,0l-6.7,65.5h-29.5l5-36
	l-26.1,35.9l-21.9,0.1l-5.8-35.6l-16.1,35.6l-13.9,0C180.7,354.3,211.4,289.1,211.6,288.8 M316.1,288.9l29.4,0l-17.6,65.5l-29.9,0
	C297.9,354.3,315.9,288.3,316.1,288.9 M435.9,288.8l29.8,0.1l-18.3,65.3l-29.8,0C417.6,354.3,435.8,288.3,435.9,288.8 M473.9,288.9
	l68.8,0l-2.5,9.3H519l-15.6,56.2l-29.8,0l15.4-56.2l-17.8-0.1C473.1,291.2,473.8,288.7,473.9,288.9 M547.8,288.9l31.8,0l6.1,23.5
	l20.6-23.5h14.6l-32.8,36.6l-7.8,28.8h-30.8l8.7-28.9L547.8,288.9z M416.5,307c-0.1-0.3,5.1-14.8,5.1-14.8
	c-92.7-30-108,85.7-18.2,61.3c4.7-13.5,2.5-5.2,4.7-13.5C332.4,348.2,378.5,282.8,416.5,307"/>
</svg>
