<?xml version="1.0" encoding="utf-8"?>
<!-- Generator: Adobe Illustrator 19.2.1, SVG Export Plug-In . SVG Version: 6.00 Build 0)  -->
<svg version="1.1" id="layer" xmlns="http://www.w3.org/2000/svg" xmlns:xlink="http://www.w3.org/1999/xlink" x="0px" y="0px"
	 viewBox="0 0 652 652" style="enable-background:new 0 0 652 652;" xml:space="preserve">
<path d="M127.7,310.7c0,2.9,2.2,5.1,5.1,5.1c2.9,0,5.1-2.2,5.1-5.1c0-2.9-2.2-5.1-5.1-5.1C129.9,305.5,127.7,307.8,127.7,310.7
	 M31.2,315.6c2.9,0,5.1-2.2,5.1-5.1c0-2.9-2.2-5.1-5.1-5.1c-2.9,0.2-5.1,2.5-5.1,5.4C26.1,313.4,28.3,315.6,31.2,315.6 M76.4,298.1
	c0,3.1,2.5,5.6,5.6,5.6c3.1,0,5.6-2.5,5.6-5.6s-2.5-5.6-5.6-5.6C78.9,292.6,76.4,295,76.4,298.1 M36.8,315.4l-3.4,2.2l2.7,31.1H82
	h45.9l2.7-31.1l-3.4-2.2c-4,8.7-11.6,14.8-20.4,14.8c-11.6,0-21.3-10.7-23-24.6H82h-1.8c-1.8,13.9-11.4,24.6-23,24.6
	C48.5,330.1,40.9,324.1,36.8,315.4 M36.2,352.5h91.5v5.8H36.2V352.5z"/>
<path d="M294.8,329.5l-3.6-1.3c-5.4-2.2-7.6-4-7.6-7.6c0-3.8,2.9-6.3,7.2-6.3c4.5,0,7.8,2.7,8.5,7.4h6v-13h-4.9l-0.7,3.8
	c-1.8-2.7-5.4-4.5-9.6-4.5c-7.4,0-13.4,5.1-13.4,12.5c0,7.6,4,11.2,11.4,14.1l3.6,1.3c6.3,2.5,8.7,4.9,8.7,8.9
	c0,4.5-3.6,7.2-8.7,7.2c-6.3,0-9.8-3.6-10.5-8.9h-6v14.8h4.9l0.7-4.5c2,2.7,5.6,4.9,11.6,4.9c8.1,0,15.2-4.5,15.2-13.9
	C307.8,336.8,303.3,332.6,294.8,329.5z M250.5,314h4.7v-5.4h-20.4v5.6h4.9l-14.5,38.3h-3.8v5.4h16.8v-5.6h-6.3l2.7-7.4h19.7l2.7,7.4
	h-4.9v5.6h16.6v-5.6h-3.8L250.5,314z M237.1,339.3l5.1-13.4c1.3-3.6,2.7-8.9,2.9-9.4c0,0.7,1.3,5.8,2.7,9.4l4.9,13.4H237.1z
	 M223.6,308.7H208v5.6h5.1l-6.7,23.3c-0.4,2.5-1.3,7.6-1.3,7.8c-0.2-0.4-1.3-5.6-2-8.1L193,308.7h-3.6l-9.8,28.4
	c-1.1,2.5-2,7.4-2,7.8c-0.2-0.7-1.1-5.6-1.8-8.1l-6.7-22.8h4.7v-5.4h-15.9v5.6h3.6l13.4,43.8h3.6l10.1-29.1c0.9-2.5,2.2-7.8,2.2-8.3
	c0.2,0.7,1.3,6,2.2,8.3l9.8,29.1h4l13.2-43.8h3.6V308.7z M315.4,321.4h4.9l1.1-6.7h8.9v37.6h-4.9v5.6h17.4v-5.6H338v-37.6h8.9
	l1.1,6.7h5.1v-12.8h-37.8V321.4z M443.3,330.6l13.9-16.6h3.8v-5.4h-15.4v5.4h4l-13.9,16.1c-1.6,1.8-2.9,3.6-4,5.6
	c0.2-2,0.2-4.3,0.2-6.5V314h4.5v-5.4h-16.6v5.6h4.3v38.3h-4.3v5.4h16.6v-5.4h-4.5v-9.4l6.3-7.2l11.4,16.8h-4.3v5.1h17v-5.6h-4.3
	L443.3,330.6z M570.8,332.8v6h13v9.4c-2.5,1.8-6,3.8-12.5,3.8c-11.6,0-17.7-8.5-17.7-19c0-10.1,6.5-19,17.4-19
	c6.3,0,11.2,2.9,12.8,8.9h5.8v-14.3h-5.1l-0.7,4.9c-2-2.9-6-5.6-13.2-5.6c-13.6,0-24.8,10.1-24.8,25.5c0,14.8,10.7,25.1,24.8,25.1
	c6.9,0,11.6-2.2,14.5-4.7l0.7,4h5.4v-25.1H570.8z M525.9,314h4.9v24.8c0,2.7,0.7,6.7,0.7,6.9c-0.2-0.2-2-3.6-3.6-5.6l-23.5-31.5h-11
	v5.6h4.3v38.3h-4.3v5.4h15.7v-5.6h-4.9v-25.5c0-3.1-0.2-7.6-0.2-7.6c0,0.2,1.6,3.4,3.6,5.8l24.2,32.9h5.6V314h4.3v-5.4h-15.7V314z
	 M389.4,351.8h-18.1v-15.7h17.9v-6h-17.9v-15.4h17l1.1,6h5.6v-12.1h-35.6v5.4h4.3v38.3h-4.3v5.6h36.7v-12.5h-5.6L389.4,351.8z
	 M468.8,314h4.3v38.3h-4.3v5.6h16.3v-5.6h-4.5V314h4.5v-5.4h-16.3V314z"/>
<path d="M616.5,308.7c5.1,0,9.6,4.3,9.6,9.6c0,5.4-4.3,9.4-9.6,9.4c-5.1,0-9.4-4.3-9.4-9.4S611.3,308.7,616.5,308.7 M616.5,326.1
	c4.5,0,7.8-3.6,7.8-7.8c0-4.5-3.6-7.8-7.8-7.8s-7.8,3.6-7.8,7.8C608.7,322.5,612.2,326.1,616.5,326.1 M613.1,313.8
	c0-0.2,0.2-0.4,0.4-0.4h3.8c1.6,0,3.4,0.9,3.4,2.9c0,2-1.3,2.7-2.2,2.9c0.4,1.1,1.1,2,1.6,3.1c0.2,0.2,0,0.7-0.4,0.7h-0.9
	c-0.2,0-0.4-0.2-0.4-0.4l-1.6-3.4h-2v3.1c0,0.2-0.2,0.4-0.4,0.4h-0.7c-0.2,0-0.4-0.2-0.4-0.4V313.8z M617.4,317.6
	c0.9,0,1.6-0.7,1.6-1.6c0-0.9-0.7-1.6-1.6-1.6h-2.7v3.1H617.4z"/>
</svg>
